PathFileType	4	(X/Y/Z)	C:/Users/beibeiliu/ov580/test_trc/User1\sequence.24_training_dense_right.trc
DataRate	CameraRate	NumFrames	NumMarkers	Units	OrigDataRate	OrigDataStartFrame	OrigNumFrames
120	120	8	19	mm	120	26	177
Frame#	Time	ThumbCMC			ThumbMCP			ThumbIP			ThumbTip			IndexMCP			IndexPIP			IndexTip			MiddleMCP			MiddlePIP			MiddleTip			RingMCP			RingPIP			RingTip			PinkyMCP			PinkyPIP			PinkyTip			BackHand1			BackHand2			BackHand3	
		X0	Y0	Z0	X1	Y1	Z1	X2	Y2	Z2	X3	Y3	Z3	X4	Y4	Z4	X5	Y5	Z5	X6	Y6	Z6	X7	Y7	Z7	X8	Y8	Z8	X9	Y9	Z9	X10	Y10	Z10	X11	Y11	Z11	X12	Y12	Z12	X13	Y13	Z13	X14	Y14	Z14	X15	Y15	Z15	X16	Y16	Z16	X17	Y17	Z17	X18	Y18	Z18	
25	0.208333	128.627	55.2262	64.9437	112.553	51.7678	33.4558	113.463	45.2012	7.87489	120.014	27.5792	-15.3707	151.745	59.584	-14.3023	151.394	55.6679	-39.3499	155.404	50.0223	-65.4117	149.199	28.8169	-25.8957	127.532	17.8907	-42.3667	90.3141	2.61177	-45.7067	139.481	1.4716	-7.18695	108.706	-5.2702	9.69732	110.304	2.1378	38.3022	146.871	-16.4184	6.13864	122.119	-16.0505	22.1957	129.308	1.24743	50.9627	183.673	17.0588	38.8246	187.204	17.545	73.3165	170.065	49.3717	58.3609	
26	0.216667	130.51	48.5401	65.7934	114.255	47.1998	35.3965	112.741	42.7096	6.37146	118.075	24.3369	-17.5195	151.451	55.5452	-13.6801	152.442	49.6781	-37.4929	153.092	48.8656	-65.7854	150.359	27.5041	-22.9534	123.112	12.9961	-42.3941	93.7502	-2.56743	-42.6424	135.512	0.229049	-7.80754	107.216	-5.35862	10.6231	113.387	-1.01346	43.8013	143.883	-21.3811	7.89523	120.953	-13.98	24.6115	129.388	0.622226	49.6665	180.506	14.8897	36.5669	185.712	11.6692	72.5163	171.084	46.0992	59.4805	
27	0.225	128.279	48.105	69.2984	110.919	46.0739	35.7447	114.853	38.6724	2.38165	115.763	21.0225	-17.4547	152.53	49.1865	-15.9405	151.276	47.4397	-37.9578	153.693	44.4746	-66.1583	149.062	22.5094	-23.7352	124.26	8.76237	-42.4854	88.4429	-3.44573	-41.0791	140.041	-5.88169	-5.53635	107.608	-8.47537	10.1206	114.805	-4.27501	44.1881	144.43	-23.624	8.62227	119.484	-23.8588	26.1064	129.911	0.200596	51.4626	180.893	10.5001	35.7281	185.474	12.7675	76.276	170.034	43.0213	55.1894	
28	0.233333	129.793	44.8689	67.1614	114.375	44.1395	33.1558	115.34	36.4197	7.17812	117.334	19.4359	-16.8394	152.322	48.8928	-17.8108	151.387	45.5245	-37.8754	154.374	39.8142	-67.8158	148.909	19.56	-24.2946	125.176	9.66706	-41.4249	90.6422	-6.72096	-42.0249	136.42	-8.04521	-5.34599	108.41	-13.9639	11.3084	114.193	-4.94103	42.6427	144.004	-25.2895	10.1282	119.635	-22.5245	27.2149	127.297	-6.6532	53.6648	181.021	9.61524	38.7513	185.492	8.01956	76.4227	168.632	42.6761	55.2342	
29	0.241667	131.588	42.2095	70.0083	114.174	42.1916	36.812	115.369	36.9592	4.53594	122.508	17.0929	-15.9381	154.538	43.1345	-17.7366	154.026	41.5881	-37.1206	156.793	35.8978	-62.6598	150.398	16.6312	-24.7132	125.383	5.66675	-41.4572	90.6763	-5.67667	-43.9015	140.393	-10.1087	-3.56696	109.251	-13.6476	13.4669	116.838	-2.79317	44.6928	146.761	-26.0802	10.7958	120.639	-24.4477	28.7671	128.165	-8.88218	54.6578	182.238	6.83754	38.0263	187.629	5.34007	76.4927	168.865	40.8329	59.9284	
30	0.25	134.19	44.5943	67.3089	118.04	44.5037	34.5395	118.636	37.185	7.16094	122.261	19.9395	-13.6494	156.86	47.3739	-15.3751	157.955	39.0353	-38.886	161.069	35.0816	-61.7422	152.815	17.0332	-23.1532	128.154	7.40816	-42.9739	96.9522	-5.77963	-47.6804	140.046	-9.97614	-4.96018	110.499	-10.8388	11.7787	121.99	-3.91136	45.7277	146.408	-24.3186	10.025	122.751	-19.8169	25.9537	130.049	-5.72406	51.2642	183.629	4.03119	39.3736	186.409	4.86299	74.3132	173.064	38.7969	59.8248	
31	0.258333	138.089	45.5091	67.6637	122.991	46.4092	31.0782	123.574	39.5207	5.0387	125.977	20.2891	-18.3483	163.997	44.3155	-13.2576	163.306	41.7049	-39.9128	167.318	34.1673	-63.9866	156.194	17.4025	-25.0428	133.642	9.34456	-43.0446	100.194	1.22492	-54.3698	140.638	-6.56164	-5.70032	112.683	-8.85239	12.1273	119.587	1.63778	41.2458	147.475	-25.5426	9.46109	123.601	-18.3197	23.7894	133.831	-1.24292	49.2227	184.609	4.76925	38.5475	188.846	5.99934	76.8249	177.6	35.0861	58.6194	
32	0.266667	141.75	50.2319	69.5472	127.449	51.0799	29.889	128.295	44.0647	0.968387	130.19	21.9771	-18.6274	170.183	45.7634	-12.8834	168.305	45.0792	-41.4289	170.611	37.8853	-61.9593	160.622	19.8307	-21.3279	135.763	16.7257	-43.0632	107.646	5.06425	-56.6095	144.439	-4.38804	-5.79276	113.93	-2.33523	9.04074	123.513	3.69762	42.6106	148.71	-22.1136	8.27143	122.022	-17.5796	23.7246	137.58	0.864656	49.3765	188.443	0.370876	40.237	189.173	-1.25292	74.8708	182.599	34.0387	55.9779	
